<?xml version="1.0" encoding="iso-8859-1"?>
<!-- Generator: Adobe Illustrator 19.0.0, SVG Export Plug-In . SVG Version: 6.00 Build 0)  -->
<svg xmlns="http://www.w3.org/2000/svg" xmlns:xlink="http://www.w3.org/1999/xlink" version="1.1" id="Layer_1" x="0px" y="0px" viewBox="0 0 512 512" style="enable-background:new 0 0 512 512;" xml:space="preserve" width="512" height="512">
<g>
	<g>
		<path style="fill:#008ADF;" d="M400.6,152.633c-19.294,0-36.598,8.692-48.199,22.365c-11.602-13.673-28.906-22.365-48.2-22.365    s-36.599,8.692-48.2,22.365c-11.602-13.673-28.906-22.365-48.2-22.365c-19.294,0-36.599,8.692-48.2,22.365    c-11.602-13.673-28.905-22.365-48.199-22.365c-34.849,0-63.2,28.352-63.2,63.2v80.333c0,8.284,6.716,15,15,15h385.6    c8.284,0,15-6.716,15-15v-80.333C463.8,180.984,435.448,152.633,400.6,152.633z"/>
		<path style="fill:#0065A3;" d="M207.8,152.633c-19.294,0-36.599,8.692-48.2,22.365v136.168H256V174.998    C244.398,161.325,227.094,152.633,207.8,152.633z"/>
		<path style="fill:#0065A3;" d="M400.6,152.633c-19.294,0-36.598,8.692-48.199,22.365l0,0v136.168H448.8c8.284,0,15-6.716,15-15    v-80.333C463.8,180.984,435.448,152.633,400.6,152.633z"/>
		<path style="fill:#008ADF;" d="M448.8,329.366c-19.294,0-36.599,8.692-48.2,22.365c-11.602-13.673-28.905-22.365-48.199-22.365    c-19.294,0-36.598,8.692-48.2,22.365c-11.603-13.673-28.906-22.365-48.2-22.365c-19.294,0-36.598,8.692-48.2,22.365    c-11.602-13.673-28.906-22.365-48.2-22.365c-19.294,0-36.598,8.692-48.199,22.365c-11.602-13.673-28.906-22.365-48.2-22.365    c-34.849,0-63.2,28.352-63.2,63.2v48.2c0,8.284,6.716,15,15,15h482c8.284,0,15-6.716,15-15v-48.2    C512,357.718,483.648,329.366,448.8,329.366z"/>
		<path style="fill:#0065A3;" d="M63.2,329.366c-34.849,0-63.2,28.352-63.2,63.2v48.2c0,8.284,6.716,15,15,15h96.4V351.731    C99.798,338.059,82.494,329.366,63.2,329.366z"/>
		<path style="fill:#0065A3;" d="M256,329.366c-19.294,0-36.598,8.692-48.2,22.365v104.035h96.4V351.731    C292.598,338.059,275.294,329.366,256,329.366z"/>
		<path style="fill:#0065A3;" d="M448.8,329.366c-19.294,0-36.599,8.692-48.2,22.365v104.035H497c8.284,0,15-6.716,15-15v-48.2    C512,357.718,483.648,329.366,448.8,329.366z"/>
	</g>
	<path style="fill:#FFCDBE;" d="M159.6,232.967c-34.848,0-63.199,28.351-63.199,63.199s28.351,63.2,63.199,63.2   c34.849,0,63.2-28.352,63.2-63.2S194.448,232.967,159.6,232.967z"/>
	<path style="fill:#FFBEAA;" d="M159.6,232.967v126.399c34.849,0,63.2-28.352,63.2-63.2S194.448,232.967,159.6,232.967z"/>
	<path style="fill:#A34F3E;" d="M352.4,232.967c-34.849,0-63.2,28.351-63.2,63.199s28.352,63.2,63.2,63.2   c34.848,0,63.199-28.352,63.199-63.2S387.248,232.967,352.4,232.967z"/>
	<path style="fill:#FDD1A3;" d="M111.4,56.234c-34.849,0-63.2,28.351-63.2,63.198c0,34.849,28.352,63.2,63.2,63.2   c34.848,0,63.199-28.352,63.199-63.2C174.6,84.585,146.248,56.234,111.4,56.234z"/>
	<path style="fill:#FFBB85;" d="M111.399,56.233v126.399c34.849,0,63.2-28.352,63.2-63.2   C174.6,84.584,146.248,56.233,111.399,56.233z"/>
	<path style="fill:#FFCDBE;" d="M304.2,56.234c-34.849,0-63.2,28.351-63.2,63.198c0,34.849,28.352,63.2,63.2,63.2   s63.2-28.352,63.2-63.2C367.4,84.585,339.049,56.234,304.2,56.234z"/>
	<path style="fill:#FFBEAA;" d="M304.2,56.233v126.399c34.849,0,63.2-28.352,63.2-63.2C367.4,84.584,339.049,56.233,304.2,56.233z"/>
	<path style="fill:#A34F3E;" d="M207.8,56.234c-34.849,0-63.2,28.351-63.2,63.198c0,34.849,28.352,63.2,63.2,63.2   s63.2-28.352,63.2-63.2C271,84.585,242.648,56.234,207.8,56.234z"/>
	<path style="fill:#FDD1A3;" d="M400.6,56.234c-34.848,0-63.199,28.351-63.199,63.198c0,34.849,28.352,63.2,63.199,63.2   c34.849,0,63.2-28.352,63.2-63.2C463.8,84.585,435.448,56.234,400.6,56.234z"/>
	<path style="fill:#A34F3E;" d="M63.2,232.967c-34.849,0-63.2,28.351-63.2,63.199s28.352,63.2,63.2,63.2s63.2-28.352,63.2-63.2   S98.049,232.967,63.2,232.967z"/>
	<path style="fill:#FDD1A3;" d="M256,232.967c-34.849,0-63.2,28.351-63.2,63.199s28.352,63.2,63.2,63.2   c34.849,0,63.2-28.352,63.2-63.2S290.849,232.967,256,232.967z"/>
	<path style="fill:#FFCDBE;" d="M448.8,232.967c-34.849,0-63.2,28.351-63.2,63.199s28.352,63.2,63.2,63.2s63.2-28.352,63.2-63.2   S483.648,232.967,448.8,232.967z"/>
	<path style="fill:#FFBB85;" d="M256,232.967v126.399c34.849,0,63.2-28.352,63.2-63.2S290.849,232.967,256,232.967z"/>
	<path style="fill:#FFBB85;" d="M400.6,56.233v126.399c34.849,0,63.2-28.352,63.2-63.2C463.8,84.584,435.448,56.233,400.6,56.233z"/>
	<path style="fill:#873F2E;" d="M207.8,56.233v126.399c34.849,0,63.2-28.352,63.2-63.2C271,84.584,242.648,56.233,207.8,56.233z"/>
	<path style="fill:#873F2E;" d="M63.2,232.967v126.399c34.849,0,63.2-28.352,63.2-63.2S98.049,232.967,63.2,232.967z"/>
	<path style="fill:#873F2E;" d="M352.399,232.967v126.399c34.849,0,63.2-28.352,63.2-63.2S387.248,232.967,352.399,232.967z"/>
	<path style="fill:#FFBEAA;" d="M448.8,232.967v126.399c34.849,0,63.2-28.352,63.2-63.2S483.648,232.967,448.8,232.967z"/>
</g>















</svg>
