<svg height="512" viewBox="0 0 512 512" width="512" xmlns="http://www.w3.org/2000/svg"><g id="filled_outline" data-name="filled outline"><path d="m40 256 16 16h32l-8-32h40l-8 32h40l-8-32h40l-8 32h40l-8-32h32l16 16 16-16v-32l-32 8v-40l32 8v-40l-32 8v-40l32 8v-40l-32 8v-32l16-16-16-16h-32l8 32h-40l8-32h-40l8 32h-40l8-32h-40l8 32h-32l-16-16-16 16v32l32-8v40l-32-8v40l32-8v40l-32-8v40l32-8v32z" fill="#ffcd01"/><path d="m256 256 16 16h32l-8-32h40l-8 32h40l-8-32h40l-8 32h40l-8-32h32l16 16 16-16v-32l-32 8v-40l32 8v-40l-32 8v-40l32 8v-40l-32 8v-32l16-16-16-16h-32l8 32h-40l8-32h-40l8 32h-40l8-32h-40l8 32h-32l-16-16-16 16v32l32-8v40l-32-8v40l32-8v40l-32-8v40l32-8v32z" fill="#8726e2"/><path d="m40 472 16 16h32l-8-32h40l-8 32h40l-8-32h40l-8 32h40l-8-32h32l16 16 16-16v-32l-32 8v-40l32 8v-40l-32 8v-40l32 8v-40l-32 8v-32l16-16-16-16h-32l8 32h-40l8-32h-40l8 32h-40l8-32h-40l8 32h-32l-16-16-16 16v32l32-8v40l-32-8v40l32-8v40l-32-8v40l32-8v32z" fill="#ff2b63"/><path d="m256 472 16 16h32l-8-32h40l-8 32h40l-8-32h40l-8 32h40l-8-32h32l16 16 16-16v-32l-32 8v-40l32 8v-40l-32 8v-40l32 8v-40l-32 8v-32l16-16-16-16h-32l8 32h-40l8-32h-40l8 32h-40l8-32h-40l8 32h-32l-16-16-16 16v32l32-8v40l-32-8v40l32-8v40l-32-8v40l32-8v32z" fill="#48bdff"/><path d="m272 120v-40l-32 8v-32l16-16-16-16h-17.556a254.821 254.821 0 0 1 1.556 28 251.7 251.7 0 0 1 -108.85 207.4l-3.15 12.6h40l-8-32h40l-8 32h40l-8-32h32l16 16 16-16v-32l-32 8v-40l32 8v-40l-32 8v-40z" fill="#ffba01"/><path d="m330.505 261.98-2.505 10.02h40l-7.6-30.406a252.529 252.529 0 0 1 -29.895 20.386z" fill="#691daf"/><path d="m488 120v-40l-32 8v-32l16-16-16-16h-.789q.777 9.9.789 20a251.5 251.5 0 0 1 -93.622 196h37.622l-8 32h40l-8-32h32l16 16 16-16v-32l-32 8v-40l32 8v-40l-32 8v-40z" fill="#691daf"/><path d="m272 336v-40l-32 8v-32l16-16-16-16h-.051a251.909 251.909 0 0 1 -129 216h9.051l-8 32h40l-8-32h40l-8 32h40l-8-32h32l16 16 16-16v-32l-32 8v-40l32 8v-40l-32 8v-40z" fill="#e5235f"/><path d="m48.638 480.638 7.362 7.362h32l-4.669-18.676a250.083 250.083 0 0 1 -34.693 11.314z" fill="#e5235f"/><path d="m257.757 470.243-1.757 1.757 16 16h32l-6.433-25.732a250.775 250.775 0 0 1 -39.81 7.975z" fill="#3ba4f2"/><path d="m488 336v-40l-21.428 5.357a252.7 252.7 0 0 1 -150.062 154.643h19.49l-8 32h40l-8-32h40l-8 32h40l-8-32h32l16 16 16-16v-32l-32 8v-40l32 8v-40l-32 8v-40z" fill="#3ba4f2"/><path d="m492.923 73.694a7.992 7.992 0 0 0 -6.863-1.455l-22.06 5.515v-18.441l13.657-13.656a8 8 0 0 0 0-11.314l-16-16a8 8 0 0 0 -5.657-2.343h-32a8 8 0 0 0 -7.761 9.94l5.515 22.06h-19.508l5.515-22.06a8 8 0 0 0 -7.761-9.94h-40a8 8 0 0 0 -7.761 9.94l5.515 22.06h-19.508l5.515-22.06a8 8 0 0 0 -7.761-9.94h-40a8 8 0 0 0 -7.761 9.94l5.515 22.06h-18.441l-29.656-29.657a8 8 0 0 0 -5.657-2.343h-32a8 8 0 0 0 -7.761 9.94l5.515 22.06h-19.508l5.515-22.06a8 8 0 0 0 -7.761-9.94h-40a8 8 0 0 0 -7.761 9.94l5.515 22.06h-19.508l5.515-22.06a8 8 0 0 0 -7.761-9.94h-40a8 8 0 0 0 -7.761 9.94l5.515 22.06h-18.441l-13.656-13.657a8 8 0 0 0 -11.314 0l-16 16a8 8 0 0 0 -2.343 5.657v32a8 8 0 0 0 9.94 7.761l22.06-5.515v19.508l-22.06-5.515a8 8 0 0 0 -9.94 7.761v40a8 8 0 0 0 9.94 7.761l22.06-5.515v19.508l-22.06-5.515a8 8 0 0 0 -9.94 7.761v40a8 8 0 0 0 9.94 7.761l22.06-5.515v18.441l-29.657 29.656a8 8 0 0 0 -2.343 5.657v32a8 8 0 0 0 9.94 7.761l22.06-5.515v19.508l-22.06-5.515a8 8 0 0 0 -9.94 7.761v40a8 8 0 0 0 9.94 7.761l22.06-5.515v19.508l-22.06-5.515a8 8 0 0 0 -9.94 7.761v40a8 8 0 0 0 9.94 7.761l22.06-5.515v18.441l-13.657 13.656a8 8 0 0 0 0 11.314l16 16a8 8 0 0 0 5.657 2.343h32a8 8 0 0 0 7.761-9.94l-5.515-22.06h19.508l-5.515 22.06a8 8 0 0 0 7.761 9.94h40a8 8 0 0 0 7.761-9.94l-5.515-22.06h19.508l-5.515 22.06a8 8 0 0 0 7.761 9.94h40a8 8 0 0 0 7.761-9.94l-5.515-22.06h18.441l29.656 29.657a8 8 0 0 0 5.657 2.343h32a8 8 0 0 0 7.761-9.94l-5.515-22.06h19.508l-5.515 22.06a8 8 0 0 0 7.761 9.94h40a8 8 0 0 0 7.761-9.94l-5.515-22.06h19.508l-5.515 22.06a8 8 0 0 0 7.761 9.94h40a8 8 0 0 0 7.761-9.94l-5.515-22.06h18.441l13.656 13.657a8 8 0 0 0 11.314 0l16-16a8 8 0 0 0 2.343-5.657v-32a8 8 0 0 0 -9.94-7.761l-22.06 5.515v-19.508l22.06 5.515a8 8 0 0 0 9.94-7.761v-40a8 8 0 0 0 -9.94-7.761l-22.06 5.515v-19.508l22.06 5.515a8 8 0 0 0 9.94-7.761v-40a8 8 0 0 0 -9.94-7.761l-22.06 5.515v-18.441l29.657-29.656a8 8 0 0 0 2.343-5.657v-32a8 8 0 0 0 -9.94-7.761l-22.06 5.515v-19.508l22.06 5.515a8 8 0 0 0 9.94-7.761v-40a8 8 0 0 0 -9.94-7.761l-22.06 5.515v-19.508l22.06 5.515a8 8 0 0 0 9.94-7.761v-40a8 8 0 0 0 -3.077-6.306zm-460.923 132.06v-19.508l22.06 5.515a8 8 0 0 0 9.94-7.761v-40a8 8 0 0 0 -9.94-7.761l-22.06 5.515v-19.508l22.06 5.515a8 8 0 0 0 9.94-7.761v-40a8 8 0 0 0 -9.94-7.761l-22.06 5.515v-18.441l8-8 10.343 10.344a8 8 0 0 0 5.657 2.343h32a8 8 0 0 0 7.761-9.94l-5.515-22.06h19.508l-5.515 22.06a8 8 0 0 0 7.761 9.94h40a8 8 0 0 0 7.761-9.94l-5.515-22.06h19.508l-5.515 22.06a8 8 0 0 0 7.761 9.94h40a8 8 0 0 0 7.761-9.94l-5.515-22.06h18.441l8 8-10.344 10.343a8 8 0 0 0 -2.343 5.657v32a8 8 0 0 0 9.94 7.761l22.06-5.515v19.508l-22.06-5.515a8 8 0 0 0 -9.94 7.761v40a8 8 0 0 0 9.94 7.761l22.06-5.515v19.508l-22.06-5.515a8 8 0 0 0 -9.94 7.761v40a8 8 0 0 0 9.94 7.761l22.06-5.515v18.441l-8 8-10.343-10.343a8 8 0 0 0 -5.657-2.344h-32a8 8 0 0 0 -7.761 9.94l5.515 22.06h-19.508l5.515-22.06a8 8 0 0 0 -7.761-9.94h-40a8 8 0 0 0 -7.761 9.94l5.515 22.06h-19.508l5.515-22.06a8 8 0 0 0 -7.761-9.94h-40a8 8 0 0 0 -7.761 9.94l5.515 22.06h-18.441l-8-8 10.343-10.343a8 8 0 0 0 2.344-5.657v-32a8 8 0 0 0 -9.94-7.761zm208 242.246h-32a8 8 0 0 0 -7.761 9.94l5.515 22.06h-19.508l5.515-22.06a8 8 0 0 0 -7.761-9.94h-40a8 8 0 0 0 -7.761 9.94l5.515 22.06h-19.508l5.515-22.06a8 8 0 0 0 -7.761-9.94h-40a8 8 0 0 0 -7.761 9.94l5.515 22.06h-18.441l-8-8 10.344-10.343a8 8 0 0 0 2.343-5.657v-32a8 8 0 0 0 -9.94-7.761l-22.06 5.515v-19.508l22.06 5.515a8 8 0 0 0 9.94-7.761v-40a8 8 0 0 0 -9.94-7.761l-22.06 5.515v-19.508l22.06 5.515a8 8 0 0 0 9.94-7.761v-40a8 8 0 0 0 -9.94-7.761l-22.06 5.515v-18.441l8-8 10.343 10.343a8 8 0 0 0 5.657 2.344h32a8 8 0 0 0 7.761-9.94l-5.515-22.06h19.508l-5.515 22.06a8 8 0 0 0 7.761 9.94h40a8 8 0 0 0 7.761-9.94l-5.515-22.06h19.508l-5.515 22.06a8 8 0 0 0 7.761 9.94h40a8 8 0 0 0 7.761-9.94l-5.515-22.06h18.441l8 8-10.343 10.343a8 8 0 0 0 -2.344 5.657v32a8 8 0 0 0 9.94 7.761l22.06-5.515v19.508l-22.06-5.515a8 8 0 0 0 -9.94 7.761v40a8 8 0 0 0 9.94 7.761l22.06-5.515v19.508l-22.06-5.515a8 8 0 0 0 -9.94 7.761v40a8 8 0 0 0 9.94 7.761l22.06-5.515v18.441l-8 8-10.343-10.343a8 8 0 0 0 -5.657-2.344zm240-141.754v19.508l-22.06-5.515a8 8 0 0 0 -9.94 7.761v40a8 8 0 0 0 9.94 7.761l22.06-5.515v19.508l-22.06-5.515a8 8 0 0 0 -9.94 7.761v40a8 8 0 0 0 9.94 7.761l22.06-5.515v18.441l-8 8-10.343-10.344a8 8 0 0 0 -5.657-2.343h-32a8 8 0 0 0 -7.761 9.94l5.515 22.06h-19.508l5.515-22.06a8 8 0 0 0 -7.761-9.94h-40a8 8 0 0 0 -7.761 9.94l5.515 22.06h-19.508l5.515-22.06a8 8 0 0 0 -7.761-9.94h-40a8 8 0 0 0 -7.761 9.94l5.515 22.06h-18.441l-8-8 10.343-10.343a8 8 0 0 0 2.344-5.657v-32a8 8 0 0 0 -9.94-7.761l-22.06 5.515v-19.508l22.06 5.515a8 8 0 0 0 9.94-7.761v-40a8 8 0 0 0 -9.94-7.761l-22.06 5.515v-19.508l22.06 5.515a8 8 0 0 0 9.94-7.761v-40a8 8 0 0 0 -9.94-7.761l-22.06 5.515v-18.441l8-8 10.343 10.343a8 8 0 0 0 5.657 2.344h32a8 8 0 0 0 7.761-9.94l-5.515-22.06h19.508l-5.515 22.06a8 8 0 0 0 7.761 9.94h40a8 8 0 0 0 7.761-9.94l-5.515-22.06h19.508l-5.515 22.06a8 8 0 0 0 7.761 9.94h40a8 8 0 0 0 7.761-9.94l-5.515-22.06h18.441l8 8-10.343 10.343a8 8 0 0 0 -2.344 5.657v32a8 8 0 0 0 9.94 7.761zm0-196.492-22.06-5.515a8 8 0 0 0 -9.94 7.761v40a8 8 0 0 0 9.94 7.761l22.06-5.515v19.508l-22.06-5.515a8 8 0 0 0 -9.94 7.761v40a8 8 0 0 0 9.94 7.761l22.06-5.515v18.441l-8 8-10.343-10.343a8 8 0 0 0 -5.657-2.344h-32a8 8 0 0 0 -7.761 9.94l5.515 22.06h-19.508l5.515-22.06a8 8 0 0 0 -7.761-9.94h-40a8 8 0 0 0 -7.761 9.94l5.515 22.06h-19.508l5.515-22.06a8 8 0 0 0 -7.761-9.94h-40a8 8 0 0 0 -7.761 9.94l5.515 22.06h-18.441l-8-8 10.343-10.343a8 8 0 0 0 2.344-5.657v-32a8 8 0 0 0 -9.94-7.761l-22.06 5.515v-19.508l22.06 5.515a8 8 0 0 0 9.94-7.761v-40a8 8 0 0 0 -9.94-7.761l-22.06 5.515v-19.508l22.06 5.515a8 8 0 0 0 9.94-7.761v-40a8 8 0 0 0 -9.94-7.761l-22.06 5.515v-18.441l8-8 10.343 10.343a8 8 0 0 0 5.657 2.344h32a8 8 0 0 0 7.761-9.94l-5.515-22.06h19.508l-5.515 22.06a8 8 0 0 0 7.761 9.94h40a8 8 0 0 0 7.761-9.94l-5.515-22.06h19.508l-5.515 22.06a8 8 0 0 0 7.761 9.94h40a8 8 0 0 0 7.761-9.94l-5.515-22.06h18.441l8 8-10.344 10.343a8 8 0 0 0 -2.343 5.657v32a8 8 0 0 0 9.94 7.761l22.06-5.515z"/><path d="m131.543 176h24.914l4.053 10.809 14.98-5.618-24-64a8 8 0 0 0 -14.98 0l-24 64 14.98 5.618zm12.457-33.216 6.456 17.216h-12.912z"/><path d="m376 112h-32a8 8 0 0 0 -8 8v64a8 8 0 0 0 8 8h32a23.988 23.988 0 0 0 17.874-40 23.988 23.988 0 0 0 -17.874-40zm0 64h-24v-16h24a8 8 0 0 1 0 16zm0-32h-24v-16h24a8 8 0 0 1 0 16z"/><path d="m144.722 344a16.63 16.63 0 0 1 14.956 9.243l14.31-7.154a32.721 32.721 0 0 0 -61.988 14.633v14.556a32.721 32.721 0 0 0 61.988 14.633l-14.31-7.154a16.722 16.722 0 0 1 -31.678-7.479v-14.556a16.74 16.74 0 0 1 16.722-16.722z"/><path d="m360 328h-16a8 8 0 0 0 -8 8v64a8 8 0 0 0 8 8h16a40 40 0 0 0 0-80zm0 64h-8v-48h8a24 24 0 0 1 0 48z"/></g></svg>