<?xml version="1.0" encoding="iso-8859-1"?>
<!-- Generator: Adobe Illustrator 19.0.0, SVG Export Plug-In . SVG Version: 6.00 Build 0)  -->
<svg version="1.1" id="Capa_1" xmlns="http://www.w3.org/2000/svg" xmlns:xlink="http://www.w3.org/1999/xlink" x="0px" y="0px"
	 viewBox="0 0 512 512" style="enable-background:new 0 0 512 512;" xml:space="preserve">
<path style="fill:#41AA5F;" d="M471.419,176.657C479.977,164.249,485,149.214,485,133c0-42.526-34.474-77-77-77
	c-14.886,0-28.777,4.236-40.557,11.551C356.025,34.082,324.335,10,287,10c-26.357,0-49.909,11.998-65.5,30.828
	C205.909,21.998,182.357,10,156,10c-46.944,0-85,38.056-85,85c0,6.895,0.842,13.591,2.392,20.01C73.26,115.009,73.131,115,73,115
	c-34.794,0-63,28.206-63,63c0,25.619,7,63.375,31.375,63.375C41.218,243.19,36,304,110,304c16.123,0,28.153-3.347,37.132-8.492
	l1.171-42.456L92.941,216.31l22.314-33.198l34.349,22.796l1.85-67.092c1.334,0.115,2.682,0.184,4.046,0.184
	c14.841,0,28.047-6.961,36.561-17.786L194.675,216H354l54.821-39.902l24.254,31.808l-47.902,34.347
	c4.009,10.095,18.942,40.247,54.327,40.247c42.5,0,62.5-37.095,62.5-62.5C502,200.005,489.239,182.997,471.419,176.657z"/>
<path style="fill:#9B4B14;" d="M408.821,176.098L354,216H194.675l-2.614-94.786C183.547,132.039,170.341,139,155.5,139
	c-1.364,0-2.712-0.068-4.046-0.184l-1.85,67.092l-34.349-22.796L92.941,216.31l55.362,36.742l-6.072,220.177
	C149.122,466.88,158.73,462,172,462s22.878,4.88,29.768,11.229L195.778,256H366l67.075-48.094L408.821,176.098z"/>
<path style="fill:#E6E6E6;" d="M298,296c7.015,0,13.743,1.215,20,3.427V216h-40v83.427C284.257,297.215,290.985,296,298,296z"/>
<path style="fill:#6E6E6E;" d="M298,296c-33.137,0-60,26.863-60,60s26.863,60,60,60s60-26.863,60-60S331.137,296,298,296z M298,376
	c-11.046,0-20-8.954-20-20s8.954-20,20-20s20,8.954,20,20S309.046,376,298,376z"/>
<path d="M268,356c0,16.542,13.458,30,30,30s30-13.458,30-30s-13.458-30-30-30S268,339.458,268,356z M308,356c0,5.514-4.486,10-10,10
	s-10-4.486-10-10s4.486-10,10-10S308,350.486,308,356z"/>
<path d="M501.83,492c-5.511,0-9.99,4.49-9.99,10s4.479,10,9.99,10c5.52,0,10-4.49,10-10S507.35,492,501.83,492z"/>
<path d="M366,266c2.091,0,4.128-0.655,5.827-1.873l9.505-6.815c9.804,16.667,28.623,35.188,58.168,35.188
	c49.458,0,72.5-43.262,72.5-72.5c0-19.578-10.264-37.487-26.443-47.563C491.762,160.277,495,146.84,495,133
	c0-47.972-39.028-87-87-87c-12.304,0-24.388,2.595-35.507,7.571C356.782,21.112,323.736,0,287,0c-24.602,0-47.92,9.429-65.5,26.188
	C203.92,9.429,180.602,0,156,0c-52.383,0-95,42.617-95,95c0,3.63,0.211,7.266,0.63,10.885C26.758,111.361,0,141.614,0,178
	c0,7.78,0.701,27.724,7.197,44.843c6.461,17.025,16.033,24.118,24.224,26.895c0.7,10.431,3.984,27.564,16.896,41.643
	C62.082,306.39,82.836,314,110,314c9.821,0,18.723-1.163,26.713-3.427c0,0-4.364,158.26-4.367,158.404
	c-0.04,1.31-14.473,23.023-13.786,23.023C118.558,492,10,492,10,492c-5.51,0-10,4.49-10,10s4.49,10,10,10h116
	c4.729,0,8.849-3.36,9.8-8.029c3.504-17.207,18.214-31.918,36.198-31.971c13.767-0.041,25.304,8.104,31.604,20H192
	c-5.522,0-10,4.478-10,10s4.478,10,10,10h269.83c5.52,0,10-4.49,10-10s-4.48-10-10-10c0,0-236.289,0-236.391,0
	c-0.028,0-11.388-20.445-13.784-23.024L206.058,266H268v26.768c-23.627,11.256-40,35.365-40,63.232c0,38.598,31.402,70,70,70
	s70-31.402,70-70c0-27.867-16.373-51.976-40-63.232V266H366z M362.785,246c0,0-14.424,0-34.785,0v-20h26
	c2.114,0,4.175-0.671,5.885-1.915l46.913-34.146l12.08,15.842L362.785,246z M137.302,289.185C129.78,292.37,120.673,294,110,294
	c-21.328,0-37.123-5.43-46.943-16.138c-13.353-14.559-11.798-34.712-11.719-35.62c0.466-5.389-4.171-10.867-9.963-10.867
	C25.692,231.375,20,199.455,20,178c0-29.188,23.719-52.942,52.895-53c0.162,0.006,0.33,0.01,0.491,0.01
	c6.36,0.004,11.214-6.188,9.727-12.347C81.711,106.857,81,100.915,81,95c0-41.355,33.645-75,75-75
	c22.416,0,43.482,9.916,57.798,27.205c0.458,0.554,13.856,17.595,22.651,31.882c2.726,4.428,9.038,6.174,13.761,3.272
	c4.7-2.89,6.16-9.069,3.27-13.76c-6.903-11.206-14.053-21.164-18.725-27.407C248.697,27.638,267.328,20,287,20
	c32.091,0,60.615,20.405,70.977,50.776c1.988,5.828,9.51,8.519,14.742,5.27C383.303,69.474,395.503,66,408,66
	c36.944,0,67,30.056,67,67c0,13.64-4.084,26.771-11.809,37.974c-3.643,5.284-1.134,12.965,4.876,15.103
	C482.382,191.172,492,204.804,492,220c0,21.173-16.686,52.5-52.5,52.5c-23.358,0-35.972-16.142-41.795-26.928l33.283-23.865
	c0,0,4.023,5.308,4.043,5.334c3.068,4.047,9.644,5.239,14.01,1.928c4.401-3.336,5.265-9.608,1.928-14.01l-47-62
	c-3.336-4.401-9.608-5.268-14.01-1.928c-4.401,3.336-5.265,9.608-1.928,14.01l6.751,8.906L350.746,206H204.402l-2.252-81.669
	c6.209-9.071,9.85-20.032,9.85-31.831c0-5.522-4.478-10-10-10s-10,4.477-10,9.999c-0.002,30.843-38.684,48.089-61.522,26.574
	c-4.02-3.788-10.35-3.598-14.136,0.421c-3.787,4.02-3.599,10.349,0.421,14.136c6.974,6.571,15.375,11.17,24.457,13.534
	l-1.115,40.439c0,0-20.508-13.523-21.131-13.773c-4.15-1.667-9.54-0.465-12.267,3.581l-31,46c-3.085,4.579-1.875,10.793,2.702,13.88
	c4.229,2.852,10.812,1.854,13.884-2.702l3.123-4.634l42.737,28.365L137.302,289.185z M195.782,246c-5.252,0-10.155,4.646-10,10.275
	c0,0,5.484,198.853,5.487,198.979c-0.17-5.05-38.445-3.389-38.539,0.006c0-0.011,5.568-201.933,5.568-201.933
	c0.095-3.447-1.593-6.7-4.467-8.607l-46.979-31.18l11.156-16.599c0,0,25.996,17.251,26.065,17.298
	c6.423,4.262,15.316-0.434,15.525-8.057l1.584-57.465c7.607-0.757,14.878-3.026,21.449-6.631l2.046,74.188
	c0.149,5.414,4.581,9.725,9.996,9.725H268v20L195.782,246L195.782,246z M348,356c0,27.57-22.43,50-50,50s-50-22.43-50-50
	s22.43-50,50-50S348,328.43,348,356z M298,286c-3.396,0-6.732,0.256-10,0.726V226h20v60.726C304.732,286.256,301.396,286,298,286z"
	/>
<path d="M258,184c19.299,0,35-15.701,35-35c0-5.522-4.478-10-10-10s-10,4.478-10,10c0,8.271-6.729,15-15,15s-15-6.729-15-15
	c0-5.522-4.478-10-10-10s-10,4.478-10,10C223,168.299,238.701,184,258,184z"/>
<path d="M341,143c17.067,0,32.308-10.191,38.827-25.965c2.109-5.104-0.318-10.951-5.423-13.062
	c-5.104-2.106-10.951,0.319-13.062,5.423C357.928,117.66,349.942,123,341,123c-12.131,0-22-9.869-22-22c0-5.522-4.478-10-10-10
	s-10,4.478-10,10C299,124.159,317.841,143,341,143z"/>
<path d="M252.42,112.47c1.16,4.38,5.13,7.44,9.66,7.44c0.859,0,1.729-0.11,2.56-0.33c5.33-1.41,8.521-6.891,7.12-12.221
	c-1.16-4.39-5.14-7.449-9.67-7.449c-0.86,0-1.72,0.109-2.56,0.33c-2.58,0.68-4.74,2.329-6.091,4.64c-1.34,2.3-1.699,4.99-1.02,7.57
	C252.42,112.46,252.42,112.46,252.42,112.47z"/>
<g>
</g>
<g>
</g>
<g>
</g>
<g>
</g>
<g>
</g>
<g>
</g>
<g>
</g>
<g>
</g>
<g>
</g>
<g>
</g>
<g>
</g>
<g>
</g>
<g>
</g>
<g>
</g>
<g>
</g>
</svg>
